# xmcd CD database file
#
# Track frame offsets:
#	211
#	8468
#	18410
#	33389
#	44933
#	55694
#	65436
#
# Disc length: 1117 seconds
#
# Revision: 0
# Processed by: cddbd v1.5.1PL2 Copyright (c) Steve Scherf et al.
# Submitted via: CDex 1.51
#
DISCID=53045b07
DTITLE=Vokaliesen - Many Sides
DYEAR=2000
DGENRE=Jazz
TTITLE0=How About You
TTITLE1=Hawaiian Lullabye
TTITLE2=Many Sides
TTITLE3=Balooga Dance
TTITLE4=Flying
TTITLE5=Rock-A-Bye Baby
TTITLE6=Chili Con Carne
EXTD=YEAR: 2000
EXTT0=
EXTT1=
EXTT2=
EXTT3=
EXTT4=
EXTT5=
EXTT6=
PLAYORDER=
